<?xml version="1.0" encoding="UTF-8"?>
<svg id="Layer_1" data-name="Layer 1" xmlns="http://www.w3.org/2000/svg" viewBox="0 0 1052.97 1028.72">
  <defs>
    <style>
      .cls-1 {
        fill: #fff;
      }
    </style>
  </defs>
  <path class="cls-1" d="M879.94,0H173.03C77.47,0,0,77.47,0,173.03V855.69c0,95.56,77.47,173.03,173.03,173.03H879.94c95.56,0,173.03-77.47,173.03-173.03V173.03C1052.97,77.47,975.5,0,879.94,0ZM157.44,274.97c0-71.5,58.17-129.66,129.66-129.66h79.79c27.54,0,49.87,22.33,49.87,49.87s-22.33,49.87-49.87,49.87h-79.79c-16.5,0-29.92,13.42-29.92,29.92v79.79c0,27.54-22.33,49.87-49.87,49.87s-49.87-22.33-49.87-49.87v-79.79Zm209.46,608.42h-79.79c-71.5,0-129.66-58.17-129.66-129.66v-79.79c0-27.54,22.33-49.87,49.87-49.87s49.87,22.33,49.87,49.87v79.79c0,16.5,13.42,29.92,29.92,29.92h79.79c27.54,0,49.87,22.33,49.87,49.87s-22.33,49.87-49.87,49.87Zm528.63-129.66c0,71.5-58.17,129.66-129.66,129.66h-79.79c-27.54,0-49.87-22.33-49.87-49.87s22.33-49.87,49.87-49.87h79.79c16.5,0,29.92-13.42,29.92-29.92v-79.79c0-27.54,22.33-49.87,49.87-49.87s49.87,22.33,49.87,49.87v79.79Zm-49.87-189.5H207.31c-27.54,0-49.87-22.33-49.87-49.87s22.33-49.87,49.87-49.87H845.66c27.54,0,49.87,22.33,49.87,49.87s-22.33,49.87-49.87,49.87Zm49.87-209.47c0,27.54-22.33,49.87-49.87,49.87s-49.87-22.33-49.87-49.87v-79.79c0-16.5-13.42-29.92-29.92-29.92h-79.79c-27.54,0-49.87-22.33-49.87-49.87s22.33-49.87,49.87-49.87h79.79c71.5,0,129.66,58.17,129.66,129.66v79.79Z"/>
</svg>